<?xml version="1.0" encoding="utf-8"?>
<!-- Generator: Adobe Illustrator 17.1.0, SVG Export Plug-In . SVG Version: 6.00 Build 0)  -->
<!DOCTYPE svg PUBLIC "-//W3C//DTD SVG 1.1//EN" "http://www.w3.org/Graphics/SVG/1.1/DTD/svg11.dtd">
<svg version="1.1" id="Lager_1" xmlns="http://www.w3.org/2000/svg" xmlns:xlink="http://www.w3.org/1999/xlink" x="0px" y="0px"
	 viewBox="38 127 452 74" enable-background="new 38 127 452 74" xml:space="preserve">
<polygon fill="#545454" points="354.7,184.8 353.6,188.3 350.1,188.3 353,190.4 351.8,193.8 354.7,191.6 357.5,193.8 356.4,190.4 
	359.3,188.3 355.7,188.3 "/>
<polygon fill="#545454" points="71.7,184.8 70.7,188.3 67.1,188.3 70,190.4 68.8,193.8 71.7,191.6 74.6,193.8 73.4,190.4 
	76.3,188.3 72.7,188.3 "/>
<g>
	<g>
		<defs>
			<rect id="SVGID_1_" x="42.3" y="131.4" width="444.6" height="66.8"/>
		</defs>
		<clipPath id="SVGID_2_">
			<use xlink:href="#SVGID_1_"  overflow="visible"/>
		</clipPath>
		<path clip-path="url(#SVGID_2_)" fill="#545454" d="M471.3,170.2v-31.3h-9.1v39H487v-7.7L471.3,170.2L471.3,170.2z M457.1,146.5
			v-7.6h-27.9v39h27.9v-7.6h-18.8v-8.6h14.8v-7.3h-14.8v-7.9H457.1z M402.4,146.1h3.1c3.2,0,5.6,0.4,7.7,3.1
			c1.9,2.4,2.8,5.7,2.8,8.8c0,2.9-0.6,5.9-2.2,8.4c-2.1,3.4-4.6,4.2-8.4,4.2h-3.1L402.4,146.1L402.4,146.1z M393.3,138.9v39h12.9
			c5.5,0,10.3-1.1,14.2-5.4c3.5-3.9,5.1-9,5.1-14.2c0-5.6-1.8-11-6-15c-4.3-4-9.1-4.4-14.7-4.4H393.3z M372.5,145.8
			c2.8,0,4.5,1.2,5.6,3.8c1.1,2.6,1.4,6,1.4,8.8c0,2.6-0.3,5.8-1.2,8.2c-1,2.9-2.7,4.4-5.9,4.4c-6.4,0-7.2-7.8-7.2-12.7
			c0-2.4,0.3-5.8,1.3-8.1C367.6,147.4,369.3,145.8,372.5,145.8 M372.5,178.5c5.3,0,9.9-2.2,12.9-6.6c2.5-3.7,3.7-9.1,3.7-13.5
			c0-4.7-1.4-10.2-4.2-14c-3.1-4.3-7.2-6-12.4-6c-11.5,0-16.7,9.7-16.7,20c0,4.9,1.3,10,4.1,14C362.9,176.7,367.2,178.5,372.5,178.5
			 M341.8,146.2h0.2v31.8h9.1v-39h-14.3l-7.2,23.4l-6.8-23.4h-14.3v39h7.7v-31.8h0.1l9.5,31.8h6.3L341.8,146.2z M303.4,146.5v-7.6
			h-27.9v39h27.9v-7.6h-18.8v-8.6h14.8v-7.3h-14.8v-7.9H303.4z M248,145.9h4.8c1.7,0,4.3-0.2,5.9,0.7c1.3,0.8,2.2,2.4,2.2,4
			c0,1.7-0.8,3.5-2.3,4.4c-1.6,1-3.7,0.8-5.6,0.8h-5L248,145.9L248,145.9z M248,162.5h6.7l6,15.4h10.1l-7.2-17.2
			c4.2-1.5,6.8-5.6,6.8-10.1c0-3.8-1.8-7.6-4.9-9.7c-3-1.9-6.5-2-10-2h-16.4v39h9.1L248,162.5L248,162.5z"/>
	</g>
	<g>
		<defs>
			<rect id="SVGID_3_" x="42.3" y="131.4" width="444.6" height="66.8"/>
		</defs>
		<clipPath id="SVGID_4_">
			<use xlink:href="#SVGID_3_"  overflow="visible"/>
		</clipPath>
		<path clip-path="url(#SVGID_4_)" fill="#545454" d="M162.8,145.8c2.8,0,4.5,1.2,5.6,3.8c1.1,2.6,1.4,6,1.4,8.8
			c0,2.6-0.3,5.8-1.2,8.2c-1,2.9-2.7,4.4-5.9,4.4c-6.4,0-7.2-7.8-7.2-12.7c0-2.4,0.3-5.8,1.3-8.1C158,147.4,159.7,145.8,162.8,145.8
			 M162.8,178.5c5.3,0,9.9-2.2,12.9-6.6c2.5-3.7,3.7-9.1,3.7-13.5c0-4.7-1.4-10.2-4.2-14c-3.1-4.3-7.2-6-12.4-6
			c-11.5,0-16.7,9.7-16.7,20c0,4.9,1.3,10,4.1,14C153.2,176.7,157.5,178.5,162.8,178.5 M141.9,147.5c-2.4-6.8-8-9.2-14.8-9.2
			c-3.6,0-6.9,0.8-9.8,3.2c-2.8,2.3-4.2,5.5-4.2,9.2c0,8.5,6.8,10.6,13.8,12c2.4,0.5,6.8,1.1,6.8,4.4s-3.5,4.2-6.1,4.2
			c-4,0-7-1.4-8.1-5.5l-8.4,1.9c1.8,7.6,8.4,10.8,15.8,10.8c3.9,0,8.2-0.7,11.3-3.2c3-2.3,4.8-6,4.8-9.8c0-3.9-1.9-7.1-5.1-9.2
			c-2.7-1.8-7-2.6-10.2-3.3c-2.2-0.4-5.6-1.1-5.6-3.9c0-3,3-3.6,5.4-3.6c3.5,0,5.6,1.3,6.7,4.6L141.9,147.5z M88,162.8l4.2-13.7
			l4.2,13.7H88z M98.4,138.9H87.8l-12.5,39h8l2.4-8h12.6l2.4,8h9.8L98.4,138.9z M72.3,138.9h-7.1v22.9h-0.1l-13-22.9h-9.8v39h7.1
			v-26.2h0.2l15,26.2h7.8V138.9z"/>
	</g>
	<g>
		<defs>
			<rect id="SVGID_5_" x="42.3" y="131.4" width="444.6" height="66.8"/>
		</defs>
		<clipPath id="SVGID_6_">
			<use xlink:href="#SVGID_5_"  overflow="visible"/>
		</clipPath>
		<path clip-path="url(#SVGID_6_)" fill="#545454" d="M169.8,194.9c-2.7,0-3.1-3.2-3.1-5.3c0-1.9,0.5-5.1,3-5.1
			c2.7,0,3.2,3.4,3.2,5.4C172.9,191.9,172.3,194.9,169.8,194.9 M169.8,196.1c3.3,0,4.6-3.6,4.6-6.3c0-1.4-0.3-3-1.1-4.3
			c-0.8-1.4-2-2.1-3.7-2.1c-3.4,0-4.6,3.6-4.6,6.4C165.1,192.6,166.4,196.1,169.8,196.1 M156.3,186.4c0-1.4,1.6-1.9,2.7-1.9
			c1.3,0,2.7,0.4,2.7,2c0,1.4-1.7,1.9-2.8,2.2C157.8,188.5,156.3,187.7,156.3,186.4 M157.1,189.5c-1.5,0.6-2.9,1.5-2.9,3.2
			c0,1.2,0.8,2.2,1.9,2.7c0.9,0.5,2,0.6,3,0.6c2.2,0,4.7-1,4.7-3.5c0-1.8-1.5-2.6-2.9-3.3c1.4-0.5,2.4-1.3,2.4-2.8
			c0-1-0.6-1.9-1.5-2.4c-0.7-0.4-1.7-0.6-2.6-0.6c-2,0-4.3,0.9-4.3,3.2C154.8,188,155.8,189,157.1,189.5 M162.2,192.8
			c0,1.6-1.9,2.1-3.2,2.1c-1.4,0-3.3-0.5-3.3-2.2c0-1.5,1.8-2.3,3.1-2.6C160.1,190.5,162.2,191.2,162.2,192.8 M148.1,190.4
			c-1.6,0-3-1.1-3-2.8c0-1.7,1.2-3,2.9-3c1.7,0,3,1.1,3,2.8C151,189,149.6,190.4,148.1,190.4 M143.9,193.6c0.6,1.7,2.1,2.5,3.9,2.5
			c3.7,0,5-3.5,5-6.6c0-3.1-1.2-6.1-4.9-6.1c-2.4,0-4.3,1.8-4.3,4.2c0,2.3,1.7,4,4.1,4c1.6,0,2.9-0.8,3.6-2.2h0
			c0,2.3-0.7,5.5-3.6,5.5c-1.2,0-2.2-0.6-2.6-1.7L143.9,193.6z M142.3,194.8h-3.5v-11.2h-1.1c-1,1.3-2.3,2.2-3.8,3v1.5
			c1.3-0.7,2.4-1.6,3.4-2.6v9.3h-3.7v1.1h8.6V194.8z M125.3,193.9h-2v2h2V193.9z M113.5,194.6v-9.7h2.3c1.3,0,2.3,0.2,3.1,1.3
			c0.8,1,1.1,2.3,1.1,3.6c0,1.1-0.3,2.4-0.9,3.3c-0.8,1.2-1.9,1.6-3.4,1.6L113.5,194.6L113.5,194.6z M111.9,195.9h4.4
			c1.7,0,3-0.6,4-2c0.9-1.2,1.3-2.7,1.3-4.2c0-1.6-0.4-3.1-1.5-4.4c-1.2-1.4-2.5-1.7-4.2-1.7h-3.9V195.9z M106.4,195.9v-11h3.5v-1.4
			h-8.6v1.4h3.5v11H106.4z M91.1,192.6c0.8,2.4,2.5,3.5,5,3.5c1.1,0,2.3-0.2,3.2-0.9s1.4-1.7,1.4-2.8c0-1-0.4-1.8-1.2-2.4
			c-0.6-0.5-1.4-0.8-2.3-1l-1.9-0.4c-1.2-0.3-2.2-0.6-2.2-2c0-1.4,1.5-2,2.6-2c1.3,0,2.8,0.8,3,2.2l1.4-0.4c-0.7-2-2.3-3-4.4-3
			c-2.1,0-4.2,1-4.2,3.4c0,0.9,0.4,1.7,1,2.3c0.6,0.6,1.4,0.8,2.2,1l2.1,0.5c1.1,0.3,2.1,0.8,2.1,2c0,0.6-0.3,1.2-0.8,1.6
			c-0.6,0.4-1.5,0.6-2.2,0.6c-1.7,0-3.2-0.8-3.7-2.5L91.1,192.6z M89.9,194.6h-6.4v-4.5h5v-1.2h-5v-3.9h6.3v-1.3h-7.8v12.3h8V194.6z
			"/>
	</g>
	<g>
		<defs>
			<rect id="SVGID_7_" x="42.3" y="131.4" width="444.6" height="66.8"/>
		</defs>
		<clipPath id="SVGID_8_">
			<use xlink:href="#SVGID_7_"  overflow="visible"/>
		</clipPath>
		<path clip-path="url(#SVGID_8_)" fill="#545454" d="M343.4,191.1h-3.8l1.9-5.9L343.4,191.1z M346.6,195.9l-4-12.3h-1.8l-4,12.3
			h1.3l1.1-3.6h4.6l1.2,3.6L346.6,195.9L346.6,195.9z M334.8,183.6h-1.5v12.3h1.5V183.6z M324.7,193.8h-2v2.1h0.9l-1.1,2.3h0.8
			l1.4-2.5L324.7,193.8L324.7,193.8z M322.1,183.6h-1.4l-3.3,5.7l-3.3-5.7h-1.8l4.1,7.1v5.2h1.5v-5.2L322.1,183.6z M307.4,195.9v-11
			h3.5v-1.4h-8.6v1.4h3.5v11H307.4z M300.3,183.6h-1.5v12.3h1.5V183.6z M294.8,191.7c-0.4,1.6-1.3,3-3.2,3c-1.3,0-2.3-0.9-2.8-2
			c-0.4-0.9-0.6-2.1-0.6-3.1c0-2.1,0.7-5.1,3.4-5.1c1.8,0,2.6,1.4,3,2.9l1.5-0.3c-0.5-2.3-2-3.9-4.4-3.9c-3.6,0-5.1,3-5.1,6.2
			c0,3,1.5,6.5,5,6.5c2.6,0,4-1.7,4.6-4L294.8,191.7z M275.8,191.1H272l1.9-5.9L275.8,191.1z M278.9,195.9l-4-12.3h-1.8l-4,12.3h1.3
			l1.1-3.6h4.6l1.2,3.6L278.9,195.9L278.9,195.9z M268.5,183.6h-1.4l-2.3,10h0l-2.8-10h-1.2l-2.6,10h0l-2.5-10h-1.6l3.1,12.3h1.6
			l2.5-9.6l2.7,9.6h1.5L268.5,183.6z M248.2,194.8c-2.6,0-3.5-2.9-3.5-5c0-2.2,0.8-5.2,3.5-5.2c1.2,0,2.1,0.7,2.7,1.7
			c0.6,1,0.7,2.3,0.7,3.4C251.6,191.8,250.8,194.8,248.2,194.8 M248.2,196.1c3.5,0,5.1-3.5,5.1-6.5c0-3-1.6-6.2-5.1-6.2
			c-3.6,0-5.1,3.4-5.1,6.4C243.1,192.9,244.7,196.1,248.2,196.1 M240.5,183.6h-1.5v12.3h1.5V183.6z"/>
	</g>
	<g>
		<defs>
			<rect id="SVGID_9_" x="42.3" y="131.4" width="444.6" height="66.8"/>
		</defs>
		<clipPath id="SVGID_10_">
			<use xlink:href="#SVGID_9_"  overflow="visible"/>
		</clipPath>
		<path clip-path="url(#SVGID_10_)" fill="#545454" d="M222.6,134.5c0,0-0.2,0.1-0.6,0c-0.2-0.1-0.4-0.2-0.6-0.3
			c-0.3-0.1-0.5-0.2-0.8-0.3c-0.2-0.1-0.3-0.1-0.5-0.2c-0.2-0.1-0.3-0.1-0.5-0.2c-0.4-0.1-0.8-0.2-1.2-0.3c-0.4-0.1-0.8-0.1-1.3-0.2
			c-0.4,0-0.9-0.1-1.3-0.1c-0.4,0-0.9,0-1.3,0c-0.4,0-0.9,0.1-1.3,0.1c-0.4,0.1-0.8,0.1-1.2,0.2s-0.7,0.1-1.1,0.2
			c-1.3,0.3-2.2,0.3-2.2,0.3s0.8-0.5,2.1-0.9c0.7-0.2,1.4-0.4,2.3-0.6c0.4-0.1,0.9-0.1,1.3-0.2c0.5,0,0.9-0.1,1.4-0.1
			c0.5,0,0.9,0,1.4,0.1c0.2,0,0.5,0.1,0.7,0.1c0.2,0,0.4,0.1,0.6,0.1c0.4,0.1,0.8,0.2,1.2,0.4c0.4,0.1,0.7,0.3,1,0.5
			c0.3,0.1,0.6,0.3,0.8,0.5c0.2,0.2,0.4,0.3,0.6,0.4C222.4,134.3,222.6,134.5,222.6,134.5 M219.5,140l-13.1,16.1l-1-0.9L219.5,140z
			 M201.5,160.8l-19.6,20.3l18.6-21.7L201.5,160.8z M234.5,143.1l-1.6-1.4c-0.2-0.2-0.6-0.3-0.8-0.4c-0.4-0.1-1.3-0.2-2-0.8
			l-1.6-1.4c-0.3-0.2-0.4-0.5-0.6-0.9c-0.3-0.8-0.8-1.8-2.8-3.3l-0.3-0.2c-3.1-2.3-8.3-6-19.4-0.4c-0.4,0.2-0.6,0.5-0.6,0.8
			c0,0.2,0.1,0.4,0.3,0.5c0.2,0.1,0.4,0.1,0.6,0.1c0,0-0.1,0.1-0.1,0.1c-0.3,0.3-0.4,0.8-0.1,1.1c0.1,0.2,0.4,0.3,0.8,0.1
			c6.9-3.4,10.4-1.6,12-0.2c0.2,1.1-0.6,2.6-2.7,5c-0.1,0.1-8.3,9.4-11.5,13c-0.5-0.4-1.2-0.3-1.6,0.1l-22.3,25.2
			c-0.4,0.5-0.4,1.2,0.1,1.6l3.4,3c0.5,0.4,1.2,0.4,1.6-0.1l22.3-25.2c0.4-0.5,0.4-1.2-0.1-1.6l-0.1-0.1
			c4.7-5.3,11.6-13.2,11.8-13.3c0.3-0.4,1-1.1,1.6-1.7c0.7-0.8,2.7-0.7,4.3,0.3c2.4,1.4,2.8,2.6,2.8,3c0,0.3,0.1,0.6,0.4,0.8
			l1.5,1.3c0.3,0.3,0.8,0.2,1-0.1l3.7-4.2C234.8,143.8,234.8,143.4,234.5,143.1"/>
	</g>
	<g>
		<defs>
			<rect id="SVGID_11_" x="42.3" y="131.4" width="444.6" height="66.8"/>
		</defs>
		<clipPath id="SVGID_12_">
			<use xlink:href="#SVGID_11_"  overflow="visible"/>
		</clipPath>
		<path clip-path="url(#SVGID_12_)" fill="#545454" d="M225.9,185.1l1.4-1.3c0.7-0.6,0.4-2-0.6-3.2l-0.6-0.7l-3.9,3.5l0.6,0.7
			C223.8,185.3,225.2,185.7,225.9,185.1"/>
	</g>
	<g>
		<defs>
			<rect id="SVGID_13_" x="42.3" y="131.4" width="444.6" height="66.8"/>
		</defs>
		<clipPath id="SVGID_14_">
			<use xlink:href="#SVGID_13_"  overflow="visible"/>
		</clipPath>
		<path clip-path="url(#SVGID_14_)" fill="#545454" d="M217.1,178.3l3.8,4.2c0.3,0.4,0.8,0.5,1,0.3l3.7-3.3c0.2-0.2,0.1-0.6-0.2-1
			l-3.8-4.2c0,0-0.4-0.5-0.4-0.5l-4.4,4C216.6,177.8,217.1,178.3,217.1,178.3"/>
	</g>
</g>
<polygon fill="#545454" points="181.1,135.2 182.3,134.1 179.5,132.2 "/>
<g>
	<g>
		<defs>
			<rect id="SVGID_15_" x="42.3" y="131.4" width="444.6" height="66.8"/>
		</defs>
		<clipPath id="SVGID_16_">
			<use xlink:href="#SVGID_15_"  overflow="visible"/>
		</clipPath>
		<path clip-path="url(#SVGID_16_)" fill="#545454" d="M186.8,144.2c0.5,0.2,0.8-0.1,0.7-0.6c0,0,0,0,0,0c-0.1-0.5,0.2-0.7,0.7-0.6
			c0.2,0.1,0.4,0.1,0.6,0.2c0.5,0.2,0.8-0.1,0.7-0.6l-0.1-0.6c-0.1-0.5,0.2-0.8,0.7-0.6c0,0,0,0,0,0c0.5,0.2,0.8-0.1,0.7-0.6
			c-0.1-0.3-0.1-0.3-0.1-0.6l-7.9-5.7l-1.3,1.1l4.8,8.4C186.5,144.1,186.5,144.1,186.8,144.2"/>
	</g>
	<g>
		<defs>
			<rect id="SVGID_17_" x="42.3" y="131.4" width="444.6" height="66.8"/>
		</defs>
		<clipPath id="SVGID_18_">
			<use xlink:href="#SVGID_17_"  overflow="visible"/>
		</clipPath>
		<path clip-path="url(#SVGID_18_)" fill="#545454" d="M189.3,143.9l-0.7-0.2c0,0,0,0,0,0l0,0c-0.1-0.1-0.3-0.1-0.4,0
			c-0.1,0.1-0.1,0.4-0.1,0.5l0,0c0.1,0.3,0,0.6-0.1,0.7c-0.1,0.1-0.2,0.1-0.3,0.1c0,0,0,0,0,0c-0.1,0-0.3,0-0.4-0.1
			c-0.1,0-0.1,0-0.2-0.1c0,0-0.1,0-0.1,0c0,0,0,0-0.1,0l29.2,32.4l0.9-0.9l0,0l0.6-0.5l0,0l1-0.9l-28.5-31.7c0,0.3,0,0.5-0.1,0.6
			C189.9,144,189.6,144,189.3,143.9 M191.4,141.2c0.1,0.3,0,0.6-0.1,0.7c-0.1,0.1-0.2,0.1-0.3,0.1c0,0,0,0,0,0c-0.1,0-0.3,0-0.4-0.1
			l0,0c0,0,0,0,0,0l29,32.2l1-0.9l-29.2-32.5L191.4,141.2z"/>
	</g>
</g>
</svg>
